<mxfile host="Electron" modified="2024-04-26T09:09:39.514Z" agent="Mozilla/5.0 (Windows NT 10.0; Win64; x64) AppleWebKit/537.36 (KHTML, like Gecko) draw.io/24.2.5 Chrome/120.0.6099.109 Electron/28.1.0 Safari/537.36" etag="g3-ZSc_AuHsz8tCf7aCS" version="24.2.5" type="device" pages="3">
  <diagram name="No1" id="oEr9e28jKtvdcxhFfeLF">
    <mxGraphModel dx="886" dy="1181" grid="1" gridSize="10" guides="1" tooltips="1" connect="1" arrows="1" fold="1" page="1" pageScale="1" pageWidth="1654" pageHeight="1169" math="0" shadow="0">
      <root>
        <mxCell id="0" />
        <mxCell id="1" parent="0" />
        <mxCell id="NJk3HtFrSZUn1l3zMq64-87" style="edgeStyle=orthogonalEdgeStyle;rounded=0;orthogonalLoop=1;jettySize=auto;html=1;exitX=0.5;exitY=1;exitDx=0;exitDy=0;entryX=0.5;entryY=0;entryDx=0;entryDy=0;endArrow=none;endFill=0;startArrow=ERone;startFill=0;" edge="1" parent="1" source="NJk3HtFrSZUn1l3zMq64-48" target="NJk3HtFrSZUn1l3zMq64-86">
          <mxGeometry relative="1" as="geometry" />
        </mxCell>
        <mxCell id="NJk3HtFrSZUn1l3zMq64-48" value="Asrama" style="rounded=0;whiteSpace=wrap;html=1;" vertex="1" parent="1">
          <mxGeometry x="485" y="260" width="120" height="60" as="geometry" />
        </mxCell>
        <mxCell id="NJk3HtFrSZUn1l3zMq64-68" style="rounded=0;orthogonalLoop=1;jettySize=auto;html=1;exitX=1;exitY=0;exitDx=0;exitDy=0;endArrow=none;endFill=0;" edge="1" parent="1" source="NJk3HtFrSZUn1l3zMq64-49" target="NJk3HtFrSZUn1l3zMq64-59">
          <mxGeometry relative="1" as="geometry" />
        </mxCell>
        <mxCell id="NJk3HtFrSZUn1l3zMq64-84" style="edgeStyle=orthogonalEdgeStyle;rounded=0;orthogonalLoop=1;jettySize=auto;html=1;exitX=0;exitY=0.5;exitDx=0;exitDy=0;entryX=1;entryY=0.5;entryDx=0;entryDy=0;startArrow=ERone;startFill=0;endArrow=none;endFill=0;" edge="1" parent="1" source="NJk3HtFrSZUn1l3zMq64-49" target="NJk3HtFrSZUn1l3zMq64-83">
          <mxGeometry relative="1" as="geometry" />
        </mxCell>
        <mxCell id="NJk3HtFrSZUn1l3zMq64-49" value="Penghuni" style="rounded=0;whiteSpace=wrap;html=1;" vertex="1" parent="1">
          <mxGeometry x="910" y="260" width="120" height="60" as="geometry" />
        </mxCell>
        <mxCell id="NJk3HtFrSZUn1l3zMq64-50" value="Nama_Gedung" style="strokeWidth=2;html=1;shape=mxgraph.flowchart.start_1;whiteSpace=wrap;" vertex="1" parent="1">
          <mxGeometry x="305" y="165" width="100" height="60" as="geometry" />
        </mxCell>
        <mxCell id="NJk3HtFrSZUn1l3zMq64-51" value="Alamat_Gedung" style="strokeWidth=2;html=1;shape=mxgraph.flowchart.start_1;whiteSpace=wrap;" vertex="1" parent="1">
          <mxGeometry x="305" y="245" width="100" height="60" as="geometry" />
        </mxCell>
        <mxCell id="NJk3HtFrSZUn1l3zMq64-52" value="Kapasitas_Gedung" style="strokeWidth=2;html=1;shape=mxgraph.flowchart.start_1;whiteSpace=wrap;" vertex="1" parent="1">
          <mxGeometry x="305" y="325" width="100" height="60" as="geometry" />
        </mxCell>
        <mxCell id="NJk3HtFrSZUn1l3zMq64-53" style="rounded=0;orthogonalLoop=1;jettySize=auto;html=1;exitX=0;exitY=0.25;exitDx=0;exitDy=0;entryX=1;entryY=0.5;entryDx=0;entryDy=0;entryPerimeter=0;endArrow=none;endFill=0;" edge="1" parent="1" source="NJk3HtFrSZUn1l3zMq64-48" target="NJk3HtFrSZUn1l3zMq64-50">
          <mxGeometry relative="1" as="geometry" />
        </mxCell>
        <mxCell id="NJk3HtFrSZUn1l3zMq64-54" value="Jenis_Kelamin" style="strokeWidth=2;html=1;shape=mxgraph.flowchart.start_1;whiteSpace=wrap;" vertex="1" parent="1">
          <mxGeometry x="1120" y="270" width="100" height="60" as="geometry" />
        </mxCell>
        <mxCell id="NJk3HtFrSZUn1l3zMq64-55" value="Tgl_Lahir" style="strokeWidth=2;html=1;shape=mxgraph.flowchart.start_1;whiteSpace=wrap;" vertex="1" parent="1">
          <mxGeometry x="1100" y="160" width="100" height="60" as="geometry" />
        </mxCell>
        <mxCell id="NJk3HtFrSZUn1l3zMq64-56" value="Nama_Penghuni" style="strokeWidth=2;html=1;shape=mxgraph.flowchart.start_1;whiteSpace=wrap;" vertex="1" parent="1">
          <mxGeometry x="1050" y="100" width="100" height="60" as="geometry" />
        </mxCell>
        <mxCell id="NJk3HtFrSZUn1l3zMq64-57" value="Alamat_Asal" style="strokeWidth=2;html=1;shape=mxgraph.flowchart.start_1;whiteSpace=wrap;" vertex="1" parent="1">
          <mxGeometry x="1100" y="330" width="100" height="60" as="geometry" />
        </mxCell>
        <mxCell id="NJk3HtFrSZUn1l3zMq64-58" value="No_Kamar" style="strokeWidth=2;html=1;shape=mxgraph.flowchart.start_1;whiteSpace=wrap;" vertex="1" parent="1">
          <mxGeometry x="430" y="575" width="100" height="60" as="geometry" />
        </mxCell>
        <mxCell id="NJk3HtFrSZUn1l3zMq64-59" value="Tgl_Mulai" style="strokeWidth=2;html=1;shape=mxgraph.flowchart.start_1;whiteSpace=wrap;" vertex="1" parent="1">
          <mxGeometry x="950" y="120" width="100" height="60" as="geometry" />
        </mxCell>
        <mxCell id="NJk3HtFrSZUn1l3zMq64-60" value="Tgl_Selesai" style="strokeWidth=2;html=1;shape=mxgraph.flowchart.start_1;whiteSpace=wrap;" vertex="1" parent="1">
          <mxGeometry x="1010" y="390" width="100" height="60" as="geometry" />
        </mxCell>
        <mxCell id="NJk3HtFrSZUn1l3zMq64-61" value="Tarif_Kamar" style="strokeWidth=2;html=1;shape=mxgraph.flowchart.start_1;whiteSpace=wrap;" vertex="1" parent="1">
          <mxGeometry x="880" y="180" width="100" height="60" as="geometry" />
        </mxCell>
        <mxCell id="NJk3HtFrSZUn1l3zMq64-62" value="Tgl_Bayar" style="strokeWidth=2;html=1;shape=mxgraph.flowchart.start_1;whiteSpace=wrap;" vertex="1" parent="1">
          <mxGeometry x="1100" y="390" width="100" height="60" as="geometry" />
        </mxCell>
        <mxCell id="NJk3HtFrSZUn1l3zMq64-63" value="Kamar_Penghuni" style="rounded=0;whiteSpace=wrap;html=1;" vertex="1" parent="1">
          <mxGeometry x="485" y="490" width="120" height="60" as="geometry" />
        </mxCell>
        <mxCell id="NJk3HtFrSZUn1l3zMq64-64" style="rounded=0;orthogonalLoop=1;jettySize=auto;html=1;exitX=1;exitY=0;exitDx=0;exitDy=0;entryX=0.238;entryY=0.891;entryDx=0;entryDy=0;entryPerimeter=0;endArrow=none;endFill=0;" edge="1" parent="1" source="NJk3HtFrSZUn1l3zMq64-49" target="NJk3HtFrSZUn1l3zMq64-56">
          <mxGeometry relative="1" as="geometry" />
        </mxCell>
        <mxCell id="NJk3HtFrSZUn1l3zMq64-65" style="rounded=0;orthogonalLoop=1;jettySize=auto;html=1;exitX=1;exitY=0;exitDx=0;exitDy=0;entryX=0;entryY=0.5;entryDx=0;entryDy=0;entryPerimeter=0;endArrow=none;endFill=0;" edge="1" parent="1" source="NJk3HtFrSZUn1l3zMq64-49" target="NJk3HtFrSZUn1l3zMq64-55">
          <mxGeometry relative="1" as="geometry" />
        </mxCell>
        <mxCell id="NJk3HtFrSZUn1l3zMq64-66" style="rounded=0;orthogonalLoop=1;jettySize=auto;html=1;entryX=0;entryY=0.5;entryDx=0;entryDy=0;entryPerimeter=0;endArrow=none;endFill=0;" edge="1" parent="1" target="NJk3HtFrSZUn1l3zMq64-54">
          <mxGeometry relative="1" as="geometry">
            <mxPoint x="1030" y="295" as="sourcePoint" />
          </mxGeometry>
        </mxCell>
        <mxCell id="NJk3HtFrSZUn1l3zMq64-67" style="rounded=0;orthogonalLoop=1;jettySize=auto;html=1;exitX=1;exitY=0.5;exitDx=0;exitDy=0;entryX=0;entryY=0.5;entryDx=0;entryDy=0;entryPerimeter=0;endArrow=none;endFill=0;" edge="1" parent="1" source="NJk3HtFrSZUn1l3zMq64-49" target="NJk3HtFrSZUn1l3zMq64-57">
          <mxGeometry relative="1" as="geometry" />
        </mxCell>
        <mxCell id="NJk3HtFrSZUn1l3zMq64-69" style="rounded=0;orthogonalLoop=1;jettySize=auto;html=1;exitX=1;exitY=0;exitDx=0;exitDy=0;entryX=0.855;entryY=0.855;entryDx=0;entryDy=0;entryPerimeter=0;endArrow=none;endFill=0;" edge="1" parent="1" source="NJk3HtFrSZUn1l3zMq64-49" target="NJk3HtFrSZUn1l3zMq64-61">
          <mxGeometry relative="1" as="geometry" />
        </mxCell>
        <mxCell id="NJk3HtFrSZUn1l3zMq64-70" style="rounded=0;orthogonalLoop=1;jettySize=auto;html=1;exitX=1;exitY=0.5;exitDx=0;exitDy=0;entryX=0.145;entryY=0.145;entryDx=0;entryDy=0;entryPerimeter=0;endArrow=none;endFill=0;" edge="1" parent="1" source="NJk3HtFrSZUn1l3zMq64-49" target="NJk3HtFrSZUn1l3zMq64-62">
          <mxGeometry relative="1" as="geometry" />
        </mxCell>
        <mxCell id="NJk3HtFrSZUn1l3zMq64-71" style="rounded=0;orthogonalLoop=1;jettySize=auto;html=1;exitX=0.75;exitY=1;exitDx=0;exitDy=0;entryX=0.5;entryY=0;entryDx=0;entryDy=0;entryPerimeter=0;endArrow=none;endFill=0;" edge="1" parent="1" source="NJk3HtFrSZUn1l3zMq64-49" target="NJk3HtFrSZUn1l3zMq64-60">
          <mxGeometry relative="1" as="geometry" />
        </mxCell>
        <mxCell id="NJk3HtFrSZUn1l3zMq64-72" style="rounded=0;orthogonalLoop=1;jettySize=auto;html=1;exitX=0;exitY=0.5;exitDx=0;exitDy=0;entryX=1;entryY=0.5;entryDx=0;entryDy=0;entryPerimeter=0;endArrow=none;endFill=0;" edge="1" parent="1" source="NJk3HtFrSZUn1l3zMq64-48" target="NJk3HtFrSZUn1l3zMq64-51">
          <mxGeometry relative="1" as="geometry" />
        </mxCell>
        <mxCell id="NJk3HtFrSZUn1l3zMq64-73" style="rounded=0;orthogonalLoop=1;jettySize=auto;html=1;exitX=0;exitY=0.75;exitDx=0;exitDy=0;entryX=1;entryY=0.5;entryDx=0;entryDy=0;entryPerimeter=0;endArrow=none;endFill=0;" edge="1" parent="1" source="NJk3HtFrSZUn1l3zMq64-48" target="NJk3HtFrSZUn1l3zMq64-52">
          <mxGeometry relative="1" as="geometry" />
        </mxCell>
        <mxCell id="NJk3HtFrSZUn1l3zMq64-75" style="rounded=0;orthogonalLoop=1;jettySize=auto;html=1;exitX=0.855;exitY=0.145;exitDx=0;exitDy=0;exitPerimeter=0;entryX=0.75;entryY=1;entryDx=0;entryDy=0;endArrow=none;endFill=0;" edge="1" parent="1" source="NJk3HtFrSZUn1l3zMq64-74" target="NJk3HtFrSZUn1l3zMq64-49">
          <mxGeometry relative="1" as="geometry" />
        </mxCell>
        <mxCell id="5XyYXkqB-5VAl1Bug32u-1" style="rounded=0;orthogonalLoop=1;jettySize=auto;html=1;exitX=0.5;exitY=0;exitDx=0;exitDy=0;exitPerimeter=0;entryX=0.75;entryY=1;entryDx=0;entryDy=0;endArrow=none;endFill=0;" edge="1" parent="1" source="NJk3HtFrSZUn1l3zMq64-74" target="NJk3HtFrSZUn1l3zMq64-49">
          <mxGeometry relative="1" as="geometry" />
        </mxCell>
        <mxCell id="NJk3HtFrSZUn1l3zMq64-74" value="No_Hp" style="strokeWidth=2;html=1;shape=mxgraph.flowchart.start_1;whiteSpace=wrap;" vertex="1" parent="1">
          <mxGeometry x="930" y="360" width="100" height="60" as="geometry" />
        </mxCell>
        <mxCell id="NJk3HtFrSZUn1l3zMq64-78" style="rounded=0;orthogonalLoop=1;jettySize=auto;html=1;exitX=0;exitY=0.5;exitDx=0;exitDy=0;exitPerimeter=0;entryX=1;entryY=0.5;entryDx=0;entryDy=0;endArrow=none;endFill=0;" edge="1" parent="1" source="NJk3HtFrSZUn1l3zMq64-76" target="NJk3HtFrSZUn1l3zMq64-49">
          <mxGeometry relative="1" as="geometry" />
        </mxCell>
        <mxCell id="NJk3HtFrSZUn1l3zMq64-76" value="Total_Pembayaran" style="strokeWidth=2;html=1;shape=mxgraph.flowchart.start_1;whiteSpace=wrap;" vertex="1" parent="1">
          <mxGeometry x="1160" y="215" width="100" height="60" as="geometry" />
        </mxCell>
        <mxCell id="NJk3HtFrSZUn1l3zMq64-77" value="Kapasitas_Kamar" style="strokeWidth=2;html=1;shape=mxgraph.flowchart.start_1;whiteSpace=wrap;" vertex="1" parent="1">
          <mxGeometry x="560" y="575" width="100" height="60" as="geometry" />
        </mxCell>
        <mxCell id="NJk3HtFrSZUn1l3zMq64-79" style="rounded=0;orthogonalLoop=1;jettySize=auto;html=1;exitX=0.5;exitY=1;exitDx=0;exitDy=0;entryX=0.5;entryY=0;entryDx=0;entryDy=0;entryPerimeter=0;endArrow=none;endFill=0;" edge="1" parent="1" source="NJk3HtFrSZUn1l3zMq64-63" target="NJk3HtFrSZUn1l3zMq64-58">
          <mxGeometry relative="1" as="geometry" />
        </mxCell>
        <mxCell id="NJk3HtFrSZUn1l3zMq64-80" style="rounded=0;orthogonalLoop=1;jettySize=auto;html=1;exitX=0.5;exitY=1;exitDx=0;exitDy=0;entryX=0.5;entryY=0;entryDx=0;entryDy=0;entryPerimeter=0;endArrow=none;endFill=0;" edge="1" parent="1" source="NJk3HtFrSZUn1l3zMq64-63" target="NJk3HtFrSZUn1l3zMq64-77">
          <mxGeometry relative="1" as="geometry" />
        </mxCell>
        <mxCell id="NJk3HtFrSZUn1l3zMq64-85" style="edgeStyle=orthogonalEdgeStyle;rounded=0;orthogonalLoop=1;jettySize=auto;html=1;exitX=0;exitY=0.5;exitDx=0;exitDy=0;entryX=1;entryY=0.5;entryDx=0;entryDy=0;endArrow=ERone;endFill=0;" edge="1" parent="1" source="NJk3HtFrSZUn1l3zMq64-83" target="NJk3HtFrSZUn1l3zMq64-48">
          <mxGeometry relative="1" as="geometry" />
        </mxCell>
        <mxCell id="NJk3HtFrSZUn1l3zMq64-83" value="Menyewa" style="shape=rhombus;perimeter=rhombusPerimeter;whiteSpace=wrap;html=1;align=center;" vertex="1" parent="1">
          <mxGeometry x="690" y="260" width="120" height="60" as="geometry" />
        </mxCell>
        <mxCell id="NJk3HtFrSZUn1l3zMq64-88" style="edgeStyle=orthogonalEdgeStyle;rounded=0;orthogonalLoop=1;jettySize=auto;html=1;exitX=0.5;exitY=1;exitDx=0;exitDy=0;entryX=0.5;entryY=0;entryDx=0;entryDy=0;endArrow=ERmany;endFill=0;startArrow=none;startFill=0;" edge="1" parent="1" source="NJk3HtFrSZUn1l3zMq64-86" target="NJk3HtFrSZUn1l3zMq64-63">
          <mxGeometry relative="1" as="geometry" />
        </mxCell>
        <mxCell id="NJk3HtFrSZUn1l3zMq64-86" value="Memiliki" style="shape=rhombus;perimeter=rhombusPerimeter;whiteSpace=wrap;html=1;align=center;" vertex="1" parent="1">
          <mxGeometry x="485" y="370" width="120" height="60" as="geometry" />
        </mxCell>
        <mxCell id="NJk3HtFrSZUn1l3zMq64-89" value="&lt;font style=&quot;font-size: 14px;&quot;&gt;Muhammad Amirul M&lt;/font&gt;&lt;div style=&quot;font-size: 14px;&quot;&gt;&lt;font style=&quot;font-size: 14px;&quot;&gt;1201230014&lt;/font&gt;&lt;/div&gt;" style="rounded=0;whiteSpace=wrap;html=1;dashed=1;dashPattern=1 2;strokeWidth=0;strokeColor=none;" vertex="1" parent="1">
          <mxGeometry x="480" y="40" width="165" height="70" as="geometry" />
        </mxCell>
      </root>
    </mxGraphModel>
  </diagram>
  <diagram id="AiIxdE7aSU0NWyDazYZh" name="No2">
    <mxGraphModel dx="620" dy="827" grid="1" gridSize="10" guides="1" tooltips="1" connect="1" arrows="1" fold="1" page="1" pageScale="1" pageWidth="1654" pageHeight="1169" math="0" shadow="0">
      <root>
        <mxCell id="0" />
        <mxCell id="1" parent="0" />
        <mxCell id="3yi2-btBfK-8P9ePSxcK-1" value="E5" style="shape=table;startSize=30;container=1;collapsible=1;childLayout=tableLayout;fixedRows=1;rowLines=0;fontStyle=1;align=center;resizeLast=1;html=1;" vertex="1" parent="1">
          <mxGeometry x="300" y="260" width="180" height="120" as="geometry" />
        </mxCell>
        <mxCell id="3yi2-btBfK-8P9ePSxcK-2" value="" style="shape=tableRow;horizontal=0;startSize=0;swimlaneHead=0;swimlaneBody=0;fillColor=none;collapsible=0;dropTarget=0;points=[[0,0.5],[1,0.5]];portConstraint=eastwest;top=0;left=0;right=0;bottom=1;" vertex="1" parent="3yi2-btBfK-8P9ePSxcK-1">
          <mxGeometry y="30" width="180" height="30" as="geometry" />
        </mxCell>
        <mxCell id="3yi2-btBfK-8P9ePSxcK-3" value="PK" style="shape=partialRectangle;connectable=0;fillColor=none;top=0;left=0;bottom=0;right=0;fontStyle=1;overflow=hidden;whiteSpace=wrap;html=1;" vertex="1" parent="3yi2-btBfK-8P9ePSxcK-2">
          <mxGeometry width="30" height="30" as="geometry">
            <mxRectangle width="30" height="30" as="alternateBounds" />
          </mxGeometry>
        </mxCell>
        <mxCell id="3yi2-btBfK-8P9ePSxcK-4" value="A13" style="shape=partialRectangle;connectable=0;fillColor=none;top=0;left=0;bottom=0;right=0;align=left;spacingLeft=6;fontStyle=5;overflow=hidden;whiteSpace=wrap;html=1;" vertex="1" parent="3yi2-btBfK-8P9ePSxcK-2">
          <mxGeometry x="30" width="150" height="30" as="geometry">
            <mxRectangle width="150" height="30" as="alternateBounds" />
          </mxGeometry>
        </mxCell>
        <mxCell id="3yi2-btBfK-8P9ePSxcK-5" value="" style="shape=tableRow;horizontal=0;startSize=0;swimlaneHead=0;swimlaneBody=0;fillColor=none;collapsible=0;dropTarget=0;points=[[0,0.5],[1,0.5]];portConstraint=eastwest;top=0;left=0;right=0;bottom=0;" vertex="1" parent="3yi2-btBfK-8P9ePSxcK-1">
          <mxGeometry y="60" width="180" height="30" as="geometry" />
        </mxCell>
        <mxCell id="3yi2-btBfK-8P9ePSxcK-6" value="" style="shape=partialRectangle;connectable=0;fillColor=none;top=0;left=0;bottom=0;right=0;editable=1;overflow=hidden;whiteSpace=wrap;html=1;" vertex="1" parent="3yi2-btBfK-8P9ePSxcK-5">
          <mxGeometry width="30" height="30" as="geometry">
            <mxRectangle width="30" height="30" as="alternateBounds" />
          </mxGeometry>
        </mxCell>
        <mxCell id="3yi2-btBfK-8P9ePSxcK-7" value="A 15" style="shape=partialRectangle;connectable=0;fillColor=none;top=0;left=0;bottom=0;right=0;align=left;spacingLeft=6;overflow=hidden;whiteSpace=wrap;html=1;" vertex="1" parent="3yi2-btBfK-8P9ePSxcK-5">
          <mxGeometry x="30" width="150" height="30" as="geometry">
            <mxRectangle width="150" height="30" as="alternateBounds" />
          </mxGeometry>
        </mxCell>
        <mxCell id="3yi2-btBfK-8P9ePSxcK-8" value="" style="shape=tableRow;horizontal=0;startSize=0;swimlaneHead=0;swimlaneBody=0;fillColor=none;collapsible=0;dropTarget=0;points=[[0,0.5],[1,0.5]];portConstraint=eastwest;top=0;left=0;right=0;bottom=0;" vertex="1" parent="3yi2-btBfK-8P9ePSxcK-1">
          <mxGeometry y="90" width="180" height="30" as="geometry" />
        </mxCell>
        <mxCell id="3yi2-btBfK-8P9ePSxcK-9" value="" style="shape=partialRectangle;connectable=0;fillColor=none;top=0;left=0;bottom=0;right=0;editable=1;overflow=hidden;whiteSpace=wrap;html=1;" vertex="1" parent="3yi2-btBfK-8P9ePSxcK-8">
          <mxGeometry width="30" height="30" as="geometry">
            <mxRectangle width="30" height="30" as="alternateBounds" />
          </mxGeometry>
        </mxCell>
        <mxCell id="3yi2-btBfK-8P9ePSxcK-10" value="A 14" style="shape=partialRectangle;connectable=0;fillColor=none;top=0;left=0;bottom=0;right=0;align=left;spacingLeft=6;overflow=hidden;whiteSpace=wrap;html=1;" vertex="1" parent="3yi2-btBfK-8P9ePSxcK-8">
          <mxGeometry x="30" width="150" height="30" as="geometry">
            <mxRectangle width="150" height="30" as="alternateBounds" />
          </mxGeometry>
        </mxCell>
        <mxCell id="PmFnfp4glNz8EJ3kwDLY-11" value="" style="rounded=0;orthogonalLoop=1;jettySize=auto;html=1;endArrow=none;endFill=0;" edge="1" parent="1" source="3yi2-btBfK-8P9ePSxcK-14" target="PmFnfp4glNz8EJ3kwDLY-1">
          <mxGeometry relative="1" as="geometry" />
        </mxCell>
        <mxCell id="3yi2-btBfK-8P9ePSxcK-14" value="E4" style="shape=table;startSize=30;container=1;collapsible=1;childLayout=tableLayout;fixedRows=1;rowLines=0;fontStyle=1;align=center;resizeLast=1;html=1;" vertex="1" parent="1">
          <mxGeometry x="570" y="150" width="180" height="120" as="geometry" />
        </mxCell>
        <mxCell id="3yi2-btBfK-8P9ePSxcK-15" value="" style="shape=tableRow;horizontal=0;startSize=0;swimlaneHead=0;swimlaneBody=0;fillColor=none;collapsible=0;dropTarget=0;points=[[0,0.5],[1,0.5]];portConstraint=eastwest;top=0;left=0;right=0;bottom=1;" vertex="1" parent="3yi2-btBfK-8P9ePSxcK-14">
          <mxGeometry y="30" width="180" height="30" as="geometry" />
        </mxCell>
        <mxCell id="3yi2-btBfK-8P9ePSxcK-16" value="PK" style="shape=partialRectangle;connectable=0;fillColor=none;top=0;left=0;bottom=0;right=0;fontStyle=1;overflow=hidden;whiteSpace=wrap;html=1;" vertex="1" parent="3yi2-btBfK-8P9ePSxcK-15">
          <mxGeometry width="30" height="30" as="geometry">
            <mxRectangle width="30" height="30" as="alternateBounds" />
          </mxGeometry>
        </mxCell>
        <mxCell id="3yi2-btBfK-8P9ePSxcK-17" value="A 16" style="shape=partialRectangle;connectable=0;fillColor=none;top=0;left=0;bottom=0;right=0;align=left;spacingLeft=6;fontStyle=5;overflow=hidden;whiteSpace=wrap;html=1;" vertex="1" parent="3yi2-btBfK-8P9ePSxcK-15">
          <mxGeometry x="30" width="150" height="30" as="geometry">
            <mxRectangle width="150" height="30" as="alternateBounds" />
          </mxGeometry>
        </mxCell>
        <mxCell id="3yi2-btBfK-8P9ePSxcK-18" value="" style="shape=tableRow;horizontal=0;startSize=0;swimlaneHead=0;swimlaneBody=0;fillColor=none;collapsible=0;dropTarget=0;points=[[0,0.5],[1,0.5]];portConstraint=eastwest;top=0;left=0;right=0;bottom=0;" vertex="1" parent="3yi2-btBfK-8P9ePSxcK-14">
          <mxGeometry y="60" width="180" height="30" as="geometry" />
        </mxCell>
        <mxCell id="3yi2-btBfK-8P9ePSxcK-19" value="" style="shape=partialRectangle;connectable=0;fillColor=none;top=0;left=0;bottom=0;right=0;editable=1;overflow=hidden;whiteSpace=wrap;html=1;" vertex="1" parent="3yi2-btBfK-8P9ePSxcK-18">
          <mxGeometry width="30" height="30" as="geometry">
            <mxRectangle width="30" height="30" as="alternateBounds" />
          </mxGeometry>
        </mxCell>
        <mxCell id="3yi2-btBfK-8P9ePSxcK-20" value="A 17" style="shape=partialRectangle;connectable=0;fillColor=none;top=0;left=0;bottom=0;right=0;align=left;spacingLeft=6;overflow=hidden;whiteSpace=wrap;html=1;" vertex="1" parent="3yi2-btBfK-8P9ePSxcK-18">
          <mxGeometry x="30" width="150" height="30" as="geometry">
            <mxRectangle width="150" height="30" as="alternateBounds" />
          </mxGeometry>
        </mxCell>
        <mxCell id="3yi2-btBfK-8P9ePSxcK-21" value="" style="shape=tableRow;horizontal=0;startSize=0;swimlaneHead=0;swimlaneBody=0;fillColor=none;collapsible=0;dropTarget=0;points=[[0,0.5],[1,0.5]];portConstraint=eastwest;top=0;left=0;right=0;bottom=0;" vertex="1" parent="3yi2-btBfK-8P9ePSxcK-14">
          <mxGeometry y="90" width="180" height="30" as="geometry" />
        </mxCell>
        <mxCell id="3yi2-btBfK-8P9ePSxcK-22" value="" style="shape=partialRectangle;connectable=0;fillColor=none;top=0;left=0;bottom=0;right=0;editable=1;overflow=hidden;whiteSpace=wrap;html=1;" vertex="1" parent="3yi2-btBfK-8P9ePSxcK-21">
          <mxGeometry width="30" height="30" as="geometry">
            <mxRectangle width="30" height="30" as="alternateBounds" />
          </mxGeometry>
        </mxCell>
        <mxCell id="3yi2-btBfK-8P9ePSxcK-23" value="A 18" style="shape=partialRectangle;connectable=0;fillColor=none;top=0;left=0;bottom=0;right=0;align=left;spacingLeft=6;overflow=hidden;whiteSpace=wrap;html=1;" vertex="1" parent="3yi2-btBfK-8P9ePSxcK-21">
          <mxGeometry x="30" width="150" height="30" as="geometry">
            <mxRectangle width="150" height="30" as="alternateBounds" />
          </mxGeometry>
        </mxCell>
        <mxCell id="3yi2-btBfK-8P9ePSxcK-27" value="E3" style="shape=table;startSize=30;container=1;collapsible=1;childLayout=tableLayout;fixedRows=1;rowLines=0;fontStyle=1;align=center;resizeLast=1;html=1;" vertex="1" parent="1">
          <mxGeometry x="570" y="350" width="180" height="150" as="geometry" />
        </mxCell>
        <mxCell id="3yi2-btBfK-8P9ePSxcK-28" value="" style="shape=tableRow;horizontal=0;startSize=0;swimlaneHead=0;swimlaneBody=0;fillColor=none;collapsible=0;dropTarget=0;points=[[0,0.5],[1,0.5]];portConstraint=eastwest;top=0;left=0;right=0;bottom=1;" vertex="1" parent="3yi2-btBfK-8P9ePSxcK-27">
          <mxGeometry y="30" width="180" height="30" as="geometry" />
        </mxCell>
        <mxCell id="3yi2-btBfK-8P9ePSxcK-29" value="PK" style="shape=partialRectangle;connectable=0;fillColor=none;top=0;left=0;bottom=0;right=0;fontStyle=1;overflow=hidden;whiteSpace=wrap;html=1;" vertex="1" parent="3yi2-btBfK-8P9ePSxcK-28">
          <mxGeometry width="30" height="30" as="geometry">
            <mxRectangle width="30" height="30" as="alternateBounds" />
          </mxGeometry>
        </mxCell>
        <mxCell id="3yi2-btBfK-8P9ePSxcK-30" value="A 07" style="shape=partialRectangle;connectable=0;fillColor=none;top=0;left=0;bottom=0;right=0;align=left;spacingLeft=6;fontStyle=5;overflow=hidden;whiteSpace=wrap;html=1;" vertex="1" parent="3yi2-btBfK-8P9ePSxcK-28">
          <mxGeometry x="30" width="150" height="30" as="geometry">
            <mxRectangle width="150" height="30" as="alternateBounds" />
          </mxGeometry>
        </mxCell>
        <mxCell id="3yi2-btBfK-8P9ePSxcK-31" value="" style="shape=tableRow;horizontal=0;startSize=0;swimlaneHead=0;swimlaneBody=0;fillColor=none;collapsible=0;dropTarget=0;points=[[0,0.5],[1,0.5]];portConstraint=eastwest;top=0;left=0;right=0;bottom=0;" vertex="1" parent="3yi2-btBfK-8P9ePSxcK-27">
          <mxGeometry y="60" width="180" height="30" as="geometry" />
        </mxCell>
        <mxCell id="3yi2-btBfK-8P9ePSxcK-32" value="" style="shape=partialRectangle;connectable=0;fillColor=none;top=0;left=0;bottom=0;right=0;editable=1;overflow=hidden;whiteSpace=wrap;html=1;" vertex="1" parent="3yi2-btBfK-8P9ePSxcK-31">
          <mxGeometry width="30" height="30" as="geometry">
            <mxRectangle width="30" height="30" as="alternateBounds" />
          </mxGeometry>
        </mxCell>
        <mxCell id="3yi2-btBfK-8P9ePSxcK-33" value="A 08" style="shape=partialRectangle;connectable=0;fillColor=none;top=0;left=0;bottom=0;right=0;align=left;spacingLeft=6;overflow=hidden;whiteSpace=wrap;html=1;" vertex="1" parent="3yi2-btBfK-8P9ePSxcK-31">
          <mxGeometry x="30" width="150" height="30" as="geometry">
            <mxRectangle width="150" height="30" as="alternateBounds" />
          </mxGeometry>
        </mxCell>
        <mxCell id="3yi2-btBfK-8P9ePSxcK-34" value="" style="shape=tableRow;horizontal=0;startSize=0;swimlaneHead=0;swimlaneBody=0;fillColor=none;collapsible=0;dropTarget=0;points=[[0,0.5],[1,0.5]];portConstraint=eastwest;top=0;left=0;right=0;bottom=0;" vertex="1" parent="3yi2-btBfK-8P9ePSxcK-27">
          <mxGeometry y="90" width="180" height="30" as="geometry" />
        </mxCell>
        <mxCell id="3yi2-btBfK-8P9ePSxcK-35" value="" style="shape=partialRectangle;connectable=0;fillColor=none;top=0;left=0;bottom=0;right=0;editable=1;overflow=hidden;whiteSpace=wrap;html=1;" vertex="1" parent="3yi2-btBfK-8P9ePSxcK-34">
          <mxGeometry width="30" height="30" as="geometry">
            <mxRectangle width="30" height="30" as="alternateBounds" />
          </mxGeometry>
        </mxCell>
        <mxCell id="3yi2-btBfK-8P9ePSxcK-36" value="A 09" style="shape=partialRectangle;connectable=0;fillColor=none;top=0;left=0;bottom=0;right=0;align=left;spacingLeft=6;overflow=hidden;whiteSpace=wrap;html=1;" vertex="1" parent="3yi2-btBfK-8P9ePSxcK-34">
          <mxGeometry x="30" width="150" height="30" as="geometry">
            <mxRectangle width="150" height="30" as="alternateBounds" />
          </mxGeometry>
        </mxCell>
        <mxCell id="3yi2-btBfK-8P9ePSxcK-37" value="" style="shape=tableRow;horizontal=0;startSize=0;swimlaneHead=0;swimlaneBody=0;fillColor=none;collapsible=0;dropTarget=0;points=[[0,0.5],[1,0.5]];portConstraint=eastwest;top=0;left=0;right=0;bottom=0;" vertex="1" parent="3yi2-btBfK-8P9ePSxcK-27">
          <mxGeometry y="120" width="180" height="30" as="geometry" />
        </mxCell>
        <mxCell id="3yi2-btBfK-8P9ePSxcK-38" value="" style="shape=partialRectangle;connectable=0;fillColor=none;top=0;left=0;bottom=0;right=0;editable=1;overflow=hidden;whiteSpace=wrap;html=1;" vertex="1" parent="3yi2-btBfK-8P9ePSxcK-37">
          <mxGeometry width="30" height="30" as="geometry">
            <mxRectangle width="30" height="30" as="alternateBounds" />
          </mxGeometry>
        </mxCell>
        <mxCell id="3yi2-btBfK-8P9ePSxcK-39" value="A 10" style="shape=partialRectangle;connectable=0;fillColor=none;top=0;left=0;bottom=0;right=0;align=left;spacingLeft=6;overflow=hidden;whiteSpace=wrap;html=1;" vertex="1" parent="3yi2-btBfK-8P9ePSxcK-37">
          <mxGeometry x="30" width="150" height="30" as="geometry">
            <mxRectangle width="150" height="30" as="alternateBounds" />
          </mxGeometry>
        </mxCell>
        <mxCell id="3yi2-btBfK-8P9ePSxcK-40" value="E1" style="shape=table;startSize=30;container=1;collapsible=1;childLayout=tableLayout;fixedRows=1;rowLines=0;fontStyle=1;align=center;resizeLast=1;html=1;" vertex="1" parent="1">
          <mxGeometry x="860" y="345" width="180" height="120" as="geometry" />
        </mxCell>
        <mxCell id="3yi2-btBfK-8P9ePSxcK-41" value="" style="shape=tableRow;horizontal=0;startSize=0;swimlaneHead=0;swimlaneBody=0;fillColor=none;collapsible=0;dropTarget=0;points=[[0,0.5],[1,0.5]];portConstraint=eastwest;top=0;left=0;right=0;bottom=1;" vertex="1" parent="3yi2-btBfK-8P9ePSxcK-40">
          <mxGeometry y="30" width="180" height="30" as="geometry" />
        </mxCell>
        <mxCell id="3yi2-btBfK-8P9ePSxcK-42" value="PK" style="shape=partialRectangle;connectable=0;fillColor=none;top=0;left=0;bottom=0;right=0;fontStyle=1;overflow=hidden;whiteSpace=wrap;html=1;" vertex="1" parent="3yi2-btBfK-8P9ePSxcK-41">
          <mxGeometry width="30" height="30" as="geometry">
            <mxRectangle width="30" height="30" as="alternateBounds" />
          </mxGeometry>
        </mxCell>
        <mxCell id="3yi2-btBfK-8P9ePSxcK-43" value="A 01" style="shape=partialRectangle;connectable=0;fillColor=none;top=0;left=0;bottom=0;right=0;align=left;spacingLeft=6;fontStyle=5;overflow=hidden;whiteSpace=wrap;html=1;" vertex="1" parent="3yi2-btBfK-8P9ePSxcK-41">
          <mxGeometry x="30" width="150" height="30" as="geometry">
            <mxRectangle width="150" height="30" as="alternateBounds" />
          </mxGeometry>
        </mxCell>
        <mxCell id="3yi2-btBfK-8P9ePSxcK-44" value="" style="shape=tableRow;horizontal=0;startSize=0;swimlaneHead=0;swimlaneBody=0;fillColor=none;collapsible=0;dropTarget=0;points=[[0,0.5],[1,0.5]];portConstraint=eastwest;top=0;left=0;right=0;bottom=0;" vertex="1" parent="3yi2-btBfK-8P9ePSxcK-40">
          <mxGeometry y="60" width="180" height="30" as="geometry" />
        </mxCell>
        <mxCell id="3yi2-btBfK-8P9ePSxcK-45" value="" style="shape=partialRectangle;connectable=0;fillColor=none;top=0;left=0;bottom=0;right=0;editable=1;overflow=hidden;whiteSpace=wrap;html=1;" vertex="1" parent="3yi2-btBfK-8P9ePSxcK-44">
          <mxGeometry width="30" height="30" as="geometry">
            <mxRectangle width="30" height="30" as="alternateBounds" />
          </mxGeometry>
        </mxCell>
        <mxCell id="3yi2-btBfK-8P9ePSxcK-46" value="A 02" style="shape=partialRectangle;connectable=0;fillColor=none;top=0;left=0;bottom=0;right=0;align=left;spacingLeft=6;overflow=hidden;whiteSpace=wrap;html=1;" vertex="1" parent="3yi2-btBfK-8P9ePSxcK-44">
          <mxGeometry x="30" width="150" height="30" as="geometry">
            <mxRectangle width="150" height="30" as="alternateBounds" />
          </mxGeometry>
        </mxCell>
        <mxCell id="3yi2-btBfK-8P9ePSxcK-47" value="" style="shape=tableRow;horizontal=0;startSize=0;swimlaneHead=0;swimlaneBody=0;fillColor=none;collapsible=0;dropTarget=0;points=[[0,0.5],[1,0.5]];portConstraint=eastwest;top=0;left=0;right=0;bottom=0;" vertex="1" parent="3yi2-btBfK-8P9ePSxcK-40">
          <mxGeometry y="90" width="180" height="30" as="geometry" />
        </mxCell>
        <mxCell id="3yi2-btBfK-8P9ePSxcK-48" value="" style="shape=partialRectangle;connectable=0;fillColor=none;top=0;left=0;bottom=0;right=0;editable=1;overflow=hidden;whiteSpace=wrap;html=1;" vertex="1" parent="3yi2-btBfK-8P9ePSxcK-47">
          <mxGeometry width="30" height="30" as="geometry">
            <mxRectangle width="30" height="30" as="alternateBounds" />
          </mxGeometry>
        </mxCell>
        <mxCell id="3yi2-btBfK-8P9ePSxcK-49" value="A 03" style="shape=partialRectangle;connectable=0;fillColor=none;top=0;left=0;bottom=0;right=0;align=left;spacingLeft=6;overflow=hidden;whiteSpace=wrap;html=1;" vertex="1" parent="3yi2-btBfK-8P9ePSxcK-47">
          <mxGeometry x="30" width="150" height="30" as="geometry">
            <mxRectangle width="150" height="30" as="alternateBounds" />
          </mxGeometry>
        </mxCell>
        <mxCell id="3yi2-btBfK-8P9ePSxcK-53" value="E2" style="shape=table;startSize=30;container=1;collapsible=1;childLayout=tableLayout;fixedRows=1;rowLines=0;fontStyle=1;align=center;resizeLast=1;html=1;" vertex="1" parent="1">
          <mxGeometry x="570" y="585" width="180" height="120" as="geometry" />
        </mxCell>
        <mxCell id="3yi2-btBfK-8P9ePSxcK-54" value="" style="shape=tableRow;horizontal=0;startSize=0;swimlaneHead=0;swimlaneBody=0;fillColor=none;collapsible=0;dropTarget=0;points=[[0,0.5],[1,0.5]];portConstraint=eastwest;top=0;left=0;right=0;bottom=1;" vertex="1" parent="3yi2-btBfK-8P9ePSxcK-53">
          <mxGeometry y="30" width="180" height="30" as="geometry" />
        </mxCell>
        <mxCell id="3yi2-btBfK-8P9ePSxcK-55" value="PK" style="shape=partialRectangle;connectable=0;fillColor=none;top=0;left=0;bottom=0;right=0;fontStyle=1;overflow=hidden;whiteSpace=wrap;html=1;" vertex="1" parent="3yi2-btBfK-8P9ePSxcK-54">
          <mxGeometry width="30" height="30" as="geometry">
            <mxRectangle width="30" height="30" as="alternateBounds" />
          </mxGeometry>
        </mxCell>
        <mxCell id="3yi2-btBfK-8P9ePSxcK-56" value="A 04" style="shape=partialRectangle;connectable=0;fillColor=none;top=0;left=0;bottom=0;right=0;align=left;spacingLeft=6;fontStyle=5;overflow=hidden;whiteSpace=wrap;html=1;" vertex="1" parent="3yi2-btBfK-8P9ePSxcK-54">
          <mxGeometry x="30" width="150" height="30" as="geometry">
            <mxRectangle width="150" height="30" as="alternateBounds" />
          </mxGeometry>
        </mxCell>
        <mxCell id="3yi2-btBfK-8P9ePSxcK-57" value="" style="shape=tableRow;horizontal=0;startSize=0;swimlaneHead=0;swimlaneBody=0;fillColor=none;collapsible=0;dropTarget=0;points=[[0,0.5],[1,0.5]];portConstraint=eastwest;top=0;left=0;right=0;bottom=0;" vertex="1" parent="3yi2-btBfK-8P9ePSxcK-53">
          <mxGeometry y="60" width="180" height="30" as="geometry" />
        </mxCell>
        <mxCell id="3yi2-btBfK-8P9ePSxcK-58" value="" style="shape=partialRectangle;connectable=0;fillColor=none;top=0;left=0;bottom=0;right=0;editable=1;overflow=hidden;whiteSpace=wrap;html=1;" vertex="1" parent="3yi2-btBfK-8P9ePSxcK-57">
          <mxGeometry width="30" height="30" as="geometry">
            <mxRectangle width="30" height="30" as="alternateBounds" />
          </mxGeometry>
        </mxCell>
        <mxCell id="3yi2-btBfK-8P9ePSxcK-59" value="A 05" style="shape=partialRectangle;connectable=0;fillColor=none;top=0;left=0;bottom=0;right=0;align=left;spacingLeft=6;overflow=hidden;whiteSpace=wrap;html=1;" vertex="1" parent="3yi2-btBfK-8P9ePSxcK-57">
          <mxGeometry x="30" width="150" height="30" as="geometry">
            <mxRectangle width="150" height="30" as="alternateBounds" />
          </mxGeometry>
        </mxCell>
        <mxCell id="3yi2-btBfK-8P9ePSxcK-60" value="" style="shape=tableRow;horizontal=0;startSize=0;swimlaneHead=0;swimlaneBody=0;fillColor=none;collapsible=0;dropTarget=0;points=[[0,0.5],[1,0.5]];portConstraint=eastwest;top=0;left=0;right=0;bottom=0;" vertex="1" parent="3yi2-btBfK-8P9ePSxcK-53">
          <mxGeometry y="90" width="180" height="30" as="geometry" />
        </mxCell>
        <mxCell id="3yi2-btBfK-8P9ePSxcK-61" value="" style="shape=partialRectangle;connectable=0;fillColor=none;top=0;left=0;bottom=0;right=0;editable=1;overflow=hidden;whiteSpace=wrap;html=1;" vertex="1" parent="3yi2-btBfK-8P9ePSxcK-60">
          <mxGeometry width="30" height="30" as="geometry">
            <mxRectangle width="30" height="30" as="alternateBounds" />
          </mxGeometry>
        </mxCell>
        <mxCell id="3yi2-btBfK-8P9ePSxcK-62" value="A 06" style="shape=partialRectangle;connectable=0;fillColor=none;top=0;left=0;bottom=0;right=0;align=left;spacingLeft=6;overflow=hidden;whiteSpace=wrap;html=1;" vertex="1" parent="3yi2-btBfK-8P9ePSxcK-60">
          <mxGeometry x="30" width="150" height="30" as="geometry">
            <mxRectangle width="150" height="30" as="alternateBounds" />
          </mxGeometry>
        </mxCell>
        <mxCell id="PmFnfp4glNz8EJ3kwDLY-1" value="E1" style="shape=table;startSize=30;container=1;collapsible=1;childLayout=tableLayout;fixedRows=1;rowLines=0;fontStyle=1;align=center;resizeLast=1;html=1;" vertex="1" parent="1">
          <mxGeometry x="850" y="165" width="180" height="90" as="geometry" />
        </mxCell>
        <mxCell id="PmFnfp4glNz8EJ3kwDLY-2" value="" style="shape=tableRow;horizontal=0;startSize=0;swimlaneHead=0;swimlaneBody=0;fillColor=none;collapsible=0;dropTarget=0;points=[[0,0.5],[1,0.5]];portConstraint=eastwest;top=0;left=0;right=0;bottom=1;" vertex="1" parent="PmFnfp4glNz8EJ3kwDLY-1">
          <mxGeometry y="30" width="180" height="30" as="geometry" />
        </mxCell>
        <mxCell id="PmFnfp4glNz8EJ3kwDLY-3" value="PK" style="shape=partialRectangle;connectable=0;fillColor=none;top=0;left=0;bottom=0;right=0;fontStyle=1;overflow=hidden;whiteSpace=wrap;html=1;" vertex="1" parent="PmFnfp4glNz8EJ3kwDLY-2">
          <mxGeometry width="30" height="30" as="geometry">
            <mxRectangle width="30" height="30" as="alternateBounds" />
          </mxGeometry>
        </mxCell>
        <mxCell id="PmFnfp4glNz8EJ3kwDLY-4" value="A 11" style="shape=partialRectangle;connectable=0;fillColor=none;top=0;left=0;bottom=0;right=0;align=left;spacingLeft=6;fontStyle=5;overflow=hidden;whiteSpace=wrap;html=1;" vertex="1" parent="PmFnfp4glNz8EJ3kwDLY-2">
          <mxGeometry x="30" width="150" height="30" as="geometry">
            <mxRectangle width="150" height="30" as="alternateBounds" />
          </mxGeometry>
        </mxCell>
        <mxCell id="PmFnfp4glNz8EJ3kwDLY-5" value="" style="shape=tableRow;horizontal=0;startSize=0;swimlaneHead=0;swimlaneBody=0;fillColor=none;collapsible=0;dropTarget=0;points=[[0,0.5],[1,0.5]];portConstraint=eastwest;top=0;left=0;right=0;bottom=0;" vertex="1" parent="PmFnfp4glNz8EJ3kwDLY-1">
          <mxGeometry y="60" width="180" height="30" as="geometry" />
        </mxCell>
        <mxCell id="PmFnfp4glNz8EJ3kwDLY-6" value="" style="shape=partialRectangle;connectable=0;fillColor=none;top=0;left=0;bottom=0;right=0;editable=1;overflow=hidden;whiteSpace=wrap;html=1;" vertex="1" parent="PmFnfp4glNz8EJ3kwDLY-5">
          <mxGeometry width="30" height="30" as="geometry">
            <mxRectangle width="30" height="30" as="alternateBounds" />
          </mxGeometry>
        </mxCell>
        <mxCell id="PmFnfp4glNz8EJ3kwDLY-7" value="A 12" style="shape=partialRectangle;connectable=0;fillColor=none;top=0;left=0;bottom=0;right=0;align=left;spacingLeft=6;overflow=hidden;whiteSpace=wrap;html=1;" vertex="1" parent="PmFnfp4glNz8EJ3kwDLY-5">
          <mxGeometry x="30" width="150" height="30" as="geometry">
            <mxRectangle width="150" height="30" as="alternateBounds" />
          </mxGeometry>
        </mxCell>
        <mxCell id="PmFnfp4glNz8EJ3kwDLY-13" style="rounded=0;orthogonalLoop=1;jettySize=auto;html=1;exitX=0.5;exitY=0;exitDx=0;exitDy=0;entryX=0.5;entryY=1.033;entryDx=0;entryDy=0;entryPerimeter=0;endArrow=none;endFill=0;" edge="1" parent="1" source="3yi2-btBfK-8P9ePSxcK-53" target="3yi2-btBfK-8P9ePSxcK-37">
          <mxGeometry relative="1" as="geometry" />
        </mxCell>
        <mxCell id="PmFnfp4glNz8EJ3kwDLY-14" style="rounded=0;orthogonalLoop=1;jettySize=auto;html=1;exitX=1;exitY=0.5;exitDx=0;exitDy=0;entryX=0;entryY=0.5;entryDx=0;entryDy=0;endArrow=none;endFill=0;" edge="1" parent="1" source="3yi2-btBfK-8P9ePSxcK-31" target="3yi2-btBfK-8P9ePSxcK-44">
          <mxGeometry relative="1" as="geometry" />
        </mxCell>
        <mxCell id="PmFnfp4glNz8EJ3kwDLY-15" style="rounded=0;orthogonalLoop=1;jettySize=auto;html=1;exitX=1;exitY=0.5;exitDx=0;exitDy=0;entryX=-0.022;entryY=-0.1;entryDx=0;entryDy=0;entryPerimeter=0;endArrow=none;endFill=0;" edge="1" parent="1" source="3yi2-btBfK-8P9ePSxcK-5" target="3yi2-btBfK-8P9ePSxcK-34">
          <mxGeometry relative="1" as="geometry" />
        </mxCell>
        <mxCell id="PmFnfp4glNz8EJ3kwDLY-16" style="rounded=0;orthogonalLoop=1;jettySize=auto;html=1;exitX=1;exitY=0.5;exitDx=0;exitDy=0;entryX=0;entryY=0.5;entryDx=0;entryDy=0;endArrow=none;endFill=0;" edge="1" parent="1" source="3yi2-btBfK-8P9ePSxcK-5" target="3yi2-btBfK-8P9ePSxcK-18">
          <mxGeometry relative="1" as="geometry" />
        </mxCell>
        <mxCell id="BJCrErcBDbvpqQNBe7bJ-1" value="&lt;font style=&quot;font-size: 14px;&quot;&gt;Muhammad Amirul M&lt;/font&gt;&lt;div style=&quot;font-size: 14px;&quot;&gt;&lt;font style=&quot;font-size: 14px;&quot;&gt;1201230014&lt;/font&gt;&lt;/div&gt;" style="rounded=0;whiteSpace=wrap;html=1;dashed=1;dashPattern=1 2;strokeWidth=0;strokeColor=none;" vertex="1" parent="1">
          <mxGeometry x="480" y="40" width="165" height="70" as="geometry" />
        </mxCell>
      </root>
    </mxGraphModel>
  </diagram>
  <diagram id="xIxY_CQq7bRuG4wEYIJ5" name="No3">
    <mxGraphModel dx="1466" dy="836" grid="1" gridSize="10" guides="1" tooltips="1" connect="1" arrows="1" fold="1" page="1" pageScale="1" pageWidth="1654" pageHeight="1169" math="0" shadow="0">
      <root>
        <mxCell id="0" />
        <mxCell id="1" parent="0" />
        <mxCell id="5qdEXgkCripUXVb5Lpx7-23" style="rounded=0;orthogonalLoop=1;jettySize=auto;html=1;exitX=0.5;exitY=0;exitDx=0;exitDy=0;entryX=0.5;entryY=1;entryDx=0;entryDy=0;endArrow=none;endFill=0;startArrow=ERmany;startFill=0;" edge="1" parent="1" source="5qdEXgkCripUXVb5Lpx7-1" target="5qdEXgkCripUXVb5Lpx7-22">
          <mxGeometry relative="1" as="geometry" />
        </mxCell>
        <mxCell id="5qdEXgkCripUXVb5Lpx7-40" style="edgeStyle=orthogonalEdgeStyle;rounded=0;orthogonalLoop=1;jettySize=auto;html=1;exitX=1;exitY=0.5;exitDx=0;exitDy=0;entryX=0.5;entryY=1;entryDx=0;entryDy=0;endArrow=none;endFill=0;startArrow=ERmany;startFill=0;" edge="1" parent="1" source="5qdEXgkCripUXVb5Lpx7-1" target="5qdEXgkCripUXVb5Lpx7-39">
          <mxGeometry relative="1" as="geometry" />
        </mxCell>
        <mxCell id="5qdEXgkCripUXVb5Lpx7-1" value="Hewan" style="rounded=0;whiteSpace=wrap;html=1;" vertex="1" parent="1">
          <mxGeometry x="240" y="520" width="120" height="60" as="geometry" />
        </mxCell>
        <mxCell id="5qdEXgkCripUXVb5Lpx7-24" style="rounded=0;orthogonalLoop=1;jettySize=auto;html=1;exitX=0.5;exitY=1;exitDx=0;exitDy=0;entryX=0.5;entryY=0;entryDx=0;entryDy=0;endArrow=none;endFill=0;startArrow=ERone;startFill=0;" edge="1" parent="1" source="5qdEXgkCripUXVb5Lpx7-2" target="5qdEXgkCripUXVb5Lpx7-22">
          <mxGeometry relative="1" as="geometry" />
        </mxCell>
        <mxCell id="5qdEXgkCripUXVb5Lpx7-32" style="rounded=0;orthogonalLoop=1;jettySize=auto;html=1;exitX=1;exitY=0.5;exitDx=0;exitDy=0;entryX=0;entryY=0.5;entryDx=0;entryDy=0;endArrow=none;endFill=0;startArrow=ERmany;startFill=0;" edge="1" parent="1" source="5qdEXgkCripUXVb5Lpx7-2" target="5qdEXgkCripUXVb5Lpx7-25">
          <mxGeometry relative="1" as="geometry" />
        </mxCell>
        <mxCell id="5qdEXgkCripUXVb5Lpx7-2" value="Majikan" style="rounded=0;whiteSpace=wrap;html=1;" vertex="1" parent="1">
          <mxGeometry x="240" y="210" width="120" height="60" as="geometry" />
        </mxCell>
        <mxCell id="5qdEXgkCripUXVb5Lpx7-3" value="Penitipan" style="rounded=0;whiteSpace=wrap;html=1;" vertex="1" parent="1">
          <mxGeometry x="750" y="380" width="120" height="60" as="geometry" />
        </mxCell>
        <mxCell id="5qdEXgkCripUXVb5Lpx7-30" style="rounded=0;orthogonalLoop=1;jettySize=auto;html=1;exitX=0.5;exitY=0;exitDx=0;exitDy=0;endArrow=none;endFill=0;" edge="1" parent="1" source="5qdEXgkCripUXVb5Lpx7-4" target="5qdEXgkCripUXVb5Lpx7-29">
          <mxGeometry relative="1" as="geometry" />
        </mxCell>
        <mxCell id="5qdEXgkCripUXVb5Lpx7-34" style="edgeStyle=orthogonalEdgeStyle;rounded=0;orthogonalLoop=1;jettySize=auto;html=1;exitX=0.5;exitY=1;exitDx=0;exitDy=0;entryX=0.5;entryY=0;entryDx=0;entryDy=0;" edge="1" parent="1" source="5qdEXgkCripUXVb5Lpx7-4" target="5qdEXgkCripUXVb5Lpx7-3">
          <mxGeometry relative="1" as="geometry" />
        </mxCell>
        <mxCell id="5qdEXgkCripUXVb5Lpx7-4" value="Transaksi" style="rounded=0;whiteSpace=wrap;html=1;" vertex="1" parent="1">
          <mxGeometry x="750" y="210" width="120" height="60" as="geometry" />
        </mxCell>
        <mxCell id="5qdEXgkCripUXVb5Lpx7-12" style="rounded=0;orthogonalLoop=1;jettySize=auto;html=1;exitX=0.5;exitY=0;exitDx=0;exitDy=0;exitPerimeter=0;endArrow=none;endFill=0;" edge="1" parent="1" source="5qdEXgkCripUXVb5Lpx7-6" target="5qdEXgkCripUXVb5Lpx7-1">
          <mxGeometry relative="1" as="geometry" />
        </mxCell>
        <mxCell id="5qdEXgkCripUXVb5Lpx7-6" value="Nama_Hewan" style="strokeWidth=2;html=1;shape=mxgraph.flowchart.start_1;whiteSpace=wrap;" vertex="1" parent="1">
          <mxGeometry x="250" y="610" width="100" height="60" as="geometry" />
        </mxCell>
        <mxCell id="5qdEXgkCripUXVb5Lpx7-10" style="rounded=0;orthogonalLoop=1;jettySize=auto;html=1;exitX=1;exitY=0.5;exitDx=0;exitDy=0;exitPerimeter=0;entryX=0;entryY=0.5;entryDx=0;entryDy=0;endArrow=none;endFill=0;" edge="1" parent="1" source="5qdEXgkCripUXVb5Lpx7-7" target="5qdEXgkCripUXVb5Lpx7-1">
          <mxGeometry relative="1" as="geometry" />
        </mxCell>
        <mxCell id="5qdEXgkCripUXVb5Lpx7-7" value="Jenis_Hewan" style="strokeWidth=2;html=1;shape=mxgraph.flowchart.start_1;whiteSpace=wrap;" vertex="1" parent="1">
          <mxGeometry x="120" y="510" width="100" height="60" as="geometry" />
        </mxCell>
        <mxCell id="5qdEXgkCripUXVb5Lpx7-8" value="&lt;b&gt;&lt;u&gt;ID_Pemilik&lt;/u&gt;&lt;/b&gt;" style="strokeWidth=2;html=1;shape=mxgraph.flowchart.start_1;whiteSpace=wrap;" vertex="1" parent="1">
          <mxGeometry x="140" y="130" width="100" height="60" as="geometry" />
        </mxCell>
        <mxCell id="5qdEXgkCripUXVb5Lpx7-9" value="&lt;b&gt;&lt;u&gt;ID_Hewan&lt;/u&gt;&lt;/b&gt;" style="strokeWidth=2;html=1;shape=mxgraph.flowchart.start_1;whiteSpace=wrap;" vertex="1" parent="1">
          <mxGeometry x="140" y="600" width="100" height="60" as="geometry" />
        </mxCell>
        <mxCell id="5qdEXgkCripUXVb5Lpx7-11" style="rounded=0;orthogonalLoop=1;jettySize=auto;html=1;exitX=0.5;exitY=0;exitDx=0;exitDy=0;exitPerimeter=0;entryX=0;entryY=0.65;entryDx=0;entryDy=0;entryPerimeter=0;endArrow=none;endFill=0;" edge="1" parent="1" source="5qdEXgkCripUXVb5Lpx7-9" target="5qdEXgkCripUXVb5Lpx7-1">
          <mxGeometry relative="1" as="geometry" />
        </mxCell>
        <mxCell id="5qdEXgkCripUXVb5Lpx7-13" value="Tgl_Keluar" style="strokeWidth=2;html=1;shape=mxgraph.flowchart.start_1;whiteSpace=wrap;" vertex="1" parent="1">
          <mxGeometry x="840" y="490" width="100" height="60" as="geometry" />
        </mxCell>
        <mxCell id="5qdEXgkCripUXVb5Lpx7-15" value="Nama_Pemilik" style="strokeWidth=2;html=1;shape=mxgraph.flowchart.start_1;whiteSpace=wrap;" vertex="1" parent="1">
          <mxGeometry x="220" y="70" width="100" height="60" as="geometry" />
        </mxCell>
        <mxCell id="5qdEXgkCripUXVb5Lpx7-16" value="Alamat" style="strokeWidth=2;html=1;shape=mxgraph.flowchart.start_1;whiteSpace=wrap;" vertex="1" parent="1">
          <mxGeometry x="330" y="80" width="100" height="60" as="geometry" />
        </mxCell>
        <mxCell id="5qdEXgkCripUXVb5Lpx7-17" value="No_Hp" style="strokeWidth=2;html=1;shape=mxgraph.flowchart.start_1;whiteSpace=wrap;" vertex="1" parent="1">
          <mxGeometry x="360" y="150" width="100" height="60" as="geometry" />
        </mxCell>
        <mxCell id="5qdEXgkCripUXVb5Lpx7-18" style="rounded=0;orthogonalLoop=1;jettySize=auto;html=1;exitX=0.5;exitY=0;exitDx=0;exitDy=0;entryX=1;entryY=0.5;entryDx=0;entryDy=0;entryPerimeter=0;endArrow=none;endFill=0;" edge="1" parent="1" source="5qdEXgkCripUXVb5Lpx7-2" target="5qdEXgkCripUXVb5Lpx7-8">
          <mxGeometry relative="1" as="geometry" />
        </mxCell>
        <mxCell id="5qdEXgkCripUXVb5Lpx7-19" style="rounded=0;orthogonalLoop=1;jettySize=auto;html=1;exitX=0.5;exitY=0;exitDx=0;exitDy=0;entryX=0.5;entryY=1;entryDx=0;entryDy=0;entryPerimeter=0;endArrow=none;endFill=0;" edge="1" parent="1" source="5qdEXgkCripUXVb5Lpx7-2" target="5qdEXgkCripUXVb5Lpx7-15">
          <mxGeometry relative="1" as="geometry" />
        </mxCell>
        <mxCell id="5qdEXgkCripUXVb5Lpx7-20" style="rounded=0;orthogonalLoop=1;jettySize=auto;html=1;exitX=0.5;exitY=0;exitDx=0;exitDy=0;entryX=0.145;entryY=0.855;entryDx=0;entryDy=0;entryPerimeter=0;endArrow=none;endFill=0;" edge="1" parent="1" source="5qdEXgkCripUXVb5Lpx7-2" target="5qdEXgkCripUXVb5Lpx7-16">
          <mxGeometry relative="1" as="geometry" />
        </mxCell>
        <mxCell id="5qdEXgkCripUXVb5Lpx7-21" style="rounded=0;orthogonalLoop=1;jettySize=auto;html=1;exitX=0.5;exitY=0;exitDx=0;exitDy=0;entryX=0;entryY=0.5;entryDx=0;entryDy=0;entryPerimeter=0;endArrow=none;endFill=0;" edge="1" parent="1" source="5qdEXgkCripUXVb5Lpx7-2" target="5qdEXgkCripUXVb5Lpx7-17">
          <mxGeometry relative="1" as="geometry" />
        </mxCell>
        <mxCell id="5qdEXgkCripUXVb5Lpx7-22" value="Memiliki" style="shape=rhombus;perimeter=rhombusPerimeter;whiteSpace=wrap;html=1;align=center;" vertex="1" parent="1">
          <mxGeometry x="240" y="360" width="120" height="60" as="geometry" />
        </mxCell>
        <mxCell id="5qdEXgkCripUXVb5Lpx7-33" style="rounded=0;orthogonalLoop=1;jettySize=auto;html=1;exitX=1;exitY=0.5;exitDx=0;exitDy=0;entryX=0;entryY=0.5;entryDx=0;entryDy=0;endArrow=ERone;endFill=0;" edge="1" parent="1" source="5qdEXgkCripUXVb5Lpx7-25" target="5qdEXgkCripUXVb5Lpx7-4">
          <mxGeometry relative="1" as="geometry" />
        </mxCell>
        <mxCell id="5qdEXgkCripUXVb5Lpx7-25" value="Melakukan" style="shape=rhombus;perimeter=rhombusPerimeter;whiteSpace=wrap;html=1;align=center;" vertex="1" parent="1">
          <mxGeometry x="520" y="210" width="120" height="60" as="geometry" />
        </mxCell>
        <mxCell id="5qdEXgkCripUXVb5Lpx7-26" value="&lt;b&gt;&lt;u&gt;ID_Penitipan&lt;/u&gt;&lt;/b&gt;" style="strokeWidth=2;html=1;shape=mxgraph.flowchart.start_1;whiteSpace=wrap;" vertex="1" parent="1">
          <mxGeometry x="720" y="490" width="100" height="60" as="geometry" />
        </mxCell>
        <mxCell id="5qdEXgkCripUXVb5Lpx7-27" value="Tgl_Masuk" style="strokeWidth=2;html=1;shape=mxgraph.flowchart.start_1;whiteSpace=wrap;" vertex="1" parent="1">
          <mxGeometry x="620" y="450" width="100" height="60" as="geometry" />
        </mxCell>
        <mxCell id="5qdEXgkCripUXVb5Lpx7-28" value="Tgl_Pembayaran" style="strokeWidth=2;html=1;shape=mxgraph.flowchart.start_1;whiteSpace=wrap;" vertex="1" parent="1">
          <mxGeometry x="820" y="120" width="100" height="60" as="geometry" />
        </mxCell>
        <mxCell id="5qdEXgkCripUXVb5Lpx7-29" value="&lt;b&gt;&lt;u&gt;ID_Transaksi&lt;/u&gt;&lt;/b&gt;" style="strokeWidth=2;html=1;shape=mxgraph.flowchart.start_1;whiteSpace=wrap;" vertex="1" parent="1">
          <mxGeometry x="700" y="120" width="100" height="60" as="geometry" />
        </mxCell>
        <mxCell id="5qdEXgkCripUXVb5Lpx7-31" style="rounded=0;orthogonalLoop=1;jettySize=auto;html=1;exitX=0.5;exitY=0;exitDx=0;exitDy=0;entryX=0.39;entryY=1.067;entryDx=0;entryDy=0;entryPerimeter=0;endArrow=none;endFill=0;" edge="1" parent="1" source="5qdEXgkCripUXVb5Lpx7-4" target="5qdEXgkCripUXVb5Lpx7-28">
          <mxGeometry relative="1" as="geometry" />
        </mxCell>
        <mxCell id="5qdEXgkCripUXVb5Lpx7-35" style="rounded=0;orthogonalLoop=1;jettySize=auto;html=1;exitX=0.5;exitY=1;exitDx=0;exitDy=0;entryX=1;entryY=0.5;entryDx=0;entryDy=0;entryPerimeter=0;endArrow=none;endFill=0;" edge="1" parent="1" source="5qdEXgkCripUXVb5Lpx7-3" target="5qdEXgkCripUXVb5Lpx7-27">
          <mxGeometry relative="1" as="geometry" />
        </mxCell>
        <mxCell id="5qdEXgkCripUXVb5Lpx7-36" style="rounded=0;orthogonalLoop=1;jettySize=auto;html=1;exitX=0.5;exitY=1;exitDx=0;exitDy=0;entryX=0.5;entryY=0;entryDx=0;entryDy=0;entryPerimeter=0;endArrow=none;endFill=0;" edge="1" parent="1" source="5qdEXgkCripUXVb5Lpx7-3" target="5qdEXgkCripUXVb5Lpx7-26">
          <mxGeometry relative="1" as="geometry" />
        </mxCell>
        <mxCell id="5qdEXgkCripUXVb5Lpx7-37" style="rounded=0;orthogonalLoop=1;jettySize=auto;html=1;exitX=0.5;exitY=1;exitDx=0;exitDy=0;entryX=0.43;entryY=0.017;entryDx=0;entryDy=0;entryPerimeter=0;endArrow=none;endFill=0;" edge="1" parent="1" source="5qdEXgkCripUXVb5Lpx7-3" target="5qdEXgkCripUXVb5Lpx7-13">
          <mxGeometry relative="1" as="geometry" />
        </mxCell>
        <mxCell id="5qdEXgkCripUXVb5Lpx7-41" style="edgeStyle=orthogonalEdgeStyle;rounded=0;orthogonalLoop=1;jettySize=auto;html=1;exitX=0.5;exitY=0;exitDx=0;exitDy=0;entryX=0;entryY=0.5;entryDx=0;entryDy=0;endArrow=ERone;endFill=0;" edge="1" parent="1" source="5qdEXgkCripUXVb5Lpx7-39" target="5qdEXgkCripUXVb5Lpx7-3">
          <mxGeometry relative="1" as="geometry" />
        </mxCell>
        <mxCell id="5qdEXgkCripUXVb5Lpx7-39" value="Dititipkan" style="shape=rhombus;perimeter=rhombusPerimeter;whiteSpace=wrap;html=1;align=center;" vertex="1" parent="1">
          <mxGeometry x="450" y="450" width="120" height="60" as="geometry" />
        </mxCell>
        <mxCell id="x4CL0W7Re8t0bDXA4DNX-1" value="&lt;font style=&quot;font-size: 14px;&quot;&gt;Muhammad Amirul M&lt;/font&gt;&lt;div style=&quot;font-size: 14px;&quot;&gt;&lt;font style=&quot;font-size: 14px;&quot;&gt;1201230014&lt;/font&gt;&lt;/div&gt;" style="rounded=0;whiteSpace=wrap;html=1;dashed=1;dashPattern=1 2;strokeWidth=0;strokeColor=none;" vertex="1" parent="1">
          <mxGeometry x="480" y="40" width="165" height="70" as="geometry" />
        </mxCell>
      </root>
    </mxGraphModel>
  </diagram>
</mxfile>
